<?xml version="1.0" encoding="UTF-8" standalone="no"?>
<svg
   version="1.1"
   id="Ebene_1"
   x="0px"
   y="0px"
   viewBox="-566.7274 -103 233.90569 218.25528"
   enable-background="new -566.7274 -103 1664.797 507.0414"
   xml:space="preserve"
   sodipodi:docname="black_king.svg"
   width="233.9057"
   height="218.25529"
   inkscape:version="1.1.2 (08b2f3d93c, 2022-04-05)"
   xmlns:inkscape="http://www.inkscape.org/namespaces/inkscape"
   xmlns:sodipodi="http://sodipodi.sourceforge.net/DTD/sodipodi-0.dtd"
   xmlns="http://www.w3.org/2000/svg"
   xmlns:svg="http://www.w3.org/2000/svg"><defs
   id="defs279" /><sodipodi:namedview
   id="namedview277"
   pagecolor="#ffffff"
   bordercolor="#666666"
   borderopacity="1.0"
   inkscape:pageshadow="2"
   inkscape:pageopacity="0.0"
   inkscape:pagecheckerboard="0"
   showgrid="false"
   fit-margin-top="0"
   fit-margin-left="0"
   fit-margin-right="0"
   fit-margin-bottom="0"
   inkscape:zoom="1.1366057"
   inkscape:cx="172.88317"
   inkscape:cy="-61.146975"
   inkscape:window-width="1920"
   inkscape:window-height="1016"
   inkscape:window-x="0"
   inkscape:window-y="27"
   inkscape:window-maximized="1"
   inkscape:current-layer="g274" />
<g
   id="g274"
   transform="translate(-482.7964,-279.4508)">
	
	
	
	
	
	
	
	
	
		
	<g
   id="g3930"><path
     stroke="#000000"
     stroke-width="0.975"
     d="m 289.5465,255.2547 c 4.2551,-2.5163 6.0524,-5.8819 6.0524,-9.5858 0,-1.0845 0.1536,-52.1748 0.1536,-52.1748 h -50.6521 c 0,0 -0.2381,51.5298 -0.2381,52.1748 0,3.7313 2.6438,7.1202 6.9572,9.6424 -3.0508,0.444 -6.0679,0.9877 -9.0513,1.6422 4.7714,3.0493 9.2784,6.6103 13.4477,10.6719 5.9081,5.747 10.7962,12.1112 14.6337,18.9734 3.8373,-6.8622 8.7285,-13.2265 14.6306,-18.9734 4.1783,-4.0616 8.6885,-7.6287 13.4599,-10.6778 -3.0517,-0.6607 -6.1978,-1.1955 -9.3439,-1.6674 z"
     id="path2" /><path
     d="m 336.1401,371.3768 c -3.1338,-6.2831 -3.2197,-14.4984 -1.828,-20.0472 1.4256,-5.7083 14.9471,-16.5107 14.9471,-16.5107 23.82,-23.1688 29.2734,-56.1955 12.1848,-73.7632 -17.0946,-17.5662 -50.2525,-13.0144 -74.0716,10.1572 -7.1124,6.922 -12.5689,14.7212 -16.299,22.7277 -3.7269,-8.0065 -9.1894,-15.8056 -16.2989,-22.7277 -23.8152,-23.1716 -56.9788,-27.7233 -74.0716,-10.1572 -17.087,17.5662 -11.6304,50.5954 12.1836,73.7632 1.0753,1.0446 12.9456,10.8024 14.3726,16.5107 1.424,5.7023 1.6222,13.8994 -1.8035,20.2589 h 0.5146 c -0.0753,0.043 -0.149,0.0707 -0.2258,0.1137 19.709,9.7208 41.8902,15.1896 65.3474,15.1896 23.4384,-0.0315 45.3037,-5.8203 65.0297,-15.5417"
     id="path4" /><g
     id="g10">
		<path
   stroke="#ffffff"
   stroke-width="3.1741"
   stroke-linecap="round"
   d="m 209.1954,370.2128 c 18.9687,-8.8515 39.9428,-13.7641 62.2548,-13.7641 21.4327,0 42.0035,5.2628 60.3546,12.7379"
   id="path6" />
		<path
   stroke="#ffffff"
   stroke-width="3.1741"
   stroke-linecap="round"
   d="m 340.9221,333.4665 c -19.7552,-6.704 -43.9635,-10.6549 -70.1201,-10.6549 -26.3853,0 -50.7842,4.0248 -70.636,10.8361"
   id="path8" />
	</g><polygon
     fill="none"
     stroke="#ffffff"
     stroke-width="1.9503"
     stroke-linejoin="bevel"
     points="291.623,235.277 249.1192,197.1778 291.623,197.1778 249.1192,235.277 "
     id="polygon12" /><path
     fill="none"
     stroke="#ffffff"
     stroke-width="3.1741"
     stroke-linecap="round"
     d="m 328.558,356.7161 c -18.1913,-6.3875 -37.5454,-11.0204 -57.6207,-11.0204 -20.4619,0 -40.1724,4.7622 -58.6589,11.3737"
     id="path14" /><polygon
     fill="#ffffff"
     stroke="#000000"
     stroke-width="0.9974"
     points="280.9262,335.2912 270.9531,330.2889 260.98,335.2912 270.9531,340.262 "
     id="polygon16" /><polygon
     fill="#ffffff"
     stroke="#000000"
     stroke-width="0.9974"
     points="239.9012,338.5631 229.2674,335.2283 220.2381,341.7722 230.8719,345.0755 "
     id="polygon18" /><polygon
     fill="#ffffff"
     stroke="#000000"
     stroke-width="0.9974"
     points="302.005,338.5631 312.6388,335.2283 321.6996,341.7722 311.0343,345.0755 "
     id="polygon20" /><rect
     x="249.1192"
     y="197.1778"
     fill="none"
     stroke="#ffffff"
     stroke-width="1.9503"
     stroke-linejoin="bevel"
     width="42.522499"
     height="38.099201"
     id="rect22" /><ellipse
     fill="none"
     stroke="#ffffff"
     stroke-width="1.9503"
     cx="270.73291"
     cy="252.61189"
     rx="17.927099"
     ry="13.2409"
     id="ellipse24" /></g>
	
	
	
	
	
	
	
	
	
	
	
	
	<g
   id="g3945"><path
     fill="#ffffff"
     stroke="#20201e"
     stroke-width="3.809"
     d="m 295.8387,-84.1298 h -50.6489 v 52.933 c 0,7.7929 11.3982,14.1174 25.4513,14.1174 14.0621,0 25.098,-6.3243 25.098,-14.1174 0,-0.689 0.0944,-52.933 0.0944,-52.933 z"
     id="path26" /><rect
     x="245.1866"
     y="-84.129799"
     fill="#ffffff"
     stroke="#20201e"
     stroke-width="3.809"
     width="50.648899"
     height="45.385502"
     id="rect28" /><line
     fill="none"
     stroke="#20201e"
     stroke-width="3.809"
     x1="245.1866"
     y1="-84.129799"
     x2="295.83871"
     y2="-38.747501"
     id="line30" /><line
     fill="none"
     stroke="#20201e"
     stroke-width="3.809"
     x1="295.83871"
     y1="-84.129799"
     x2="245.1866"
     y2="-38.747501"
     id="line32" /><path
     fill="#ffffff"
     stroke="#20201e"
     stroke-width="3.809"
     stroke-linejoin="round"
     d="m 335.9199,93.6085 c -19.7062,-9.724 -41.1256,-14.8363 -64.5861,-14.8363 -23.4604,0 -45.8951,5.4518 -65.6054,15.1742 19.7106,9.7239 41.7643,15.3234 65.2215,15.3234 23.4698,0.0314 45.2723,-5.9147 64.9667,-15.6361 z"
     id="path34" /><path
     fill="#ffffff"
     stroke="#20201e"
     stroke-width="3.809"
     stroke-linejoin="bevel"
     d="m 345.7672,60.26 c 1.1306,-0.9893 2.252,-2.0016 3.3518,-3.0693 23.8169,-23.1732 29.2734,-56.1986 12.1848,-73.7632 -17.0946,-17.5662 -50.2525,-13.0144 -74.0684,10.1572 -7.1155,6.9205 -12.5752,14.7228 -16.3018,22.7277 -3.7237,-8.0049 -9.1862,-15.8072 -16.2989,-22.7277 -23.8153,-23.1716 -56.982,-27.7233 -74.0684,-10.1572 -17.093,17.5646 -11.638,50.5923 12.182,73.7632 1.103,1.0707 2.229,2.0876 3.3673,3.077 20.5647,-7.7224 46.559,-12.3371 74.8361,-12.3371 28.2519,0 54.2386,4.6248 74.7825,12.3327 z"
     id="path36" /><path
     fill="#ffffff"
     stroke="#20201e"
     stroke-width="3.809"
     d="m 270.9531,16.3406 c 3.7269,-8.0065 9.1862,-15.8072 16.3018,-22.7245 5.7976,-5.6469 12.1574,-10.1789 18.7045,-13.5628 -10.8578,-3.0539 -22.6493,-4.7298 -34.9877,-4.7298 -12.3446,0 -24.1488,1.6806 -35.0096,4.7393 6.5379,3.3827 12.8946,7.9112 18.6922,13.5537 7.1102,6.9214 12.5529,14.7237 16.2967,22.7148 z"
     id="path38" /><path
     fill="#ffffff"
     stroke="#20201e"
     stroke-width="3.809"
     stroke-linejoin="bevel"
     d="m 345.484,60.26 -0.0123,-0.0169 C 324.9177,52.5298 298.9379,47.923 270.686,47.923 c -28.2764,0 -54.2701,4.6147 -74.8329,12.3371 0,0 9.8636,7.7255 11.291,13.4322 1.4256,5.7023 2.037,13.8809 -1.3902,20.2391 19.7078,-9.7224 42.1451,-15.1742 65.6055,-15.1742 23.0117,0 45.1652,5.461 64.5861,14.8363 -3.1338,-6.2784 -3.14,-14.3556 -1.7513,-19.9012 C 335.61,68.0293 345.4887,60.29 345.4887,60.29 Z"
     id="path40" /><path
     fill="#ffffff"
     stroke="#20201e"
     stroke-width="3.809"
     stroke-linejoin="bevel"
     d="m 205.7346,93.9546 c 19.7077,-9.7224 42.145,-15.1742 65.6054,-15.1742 23.0117,0 45.1621,5.461 64.5861,14.8363 -1.3334,-2.6822 -2.7344,-9.532 -2.5101,-13.3523 -19.5218,-7.6746 -40.5153,-11.8702 -62.3869,-11.8702 -22.1239,0 -43.3405,4.2828 -63.0477,12.1187 0.2517,7.0787 -0.7551,10.6338 -2.2337,13.4023 z"
     id="path42" /><polygon
     points="280.8004,58.4352 271.079,53.5588 261.3261,58.4352 271.079,63.3117 "
     id="polygon44" /><polygon
     points="240.6878,61.6443 230.3056,58.4038 221.4651,64.7904 231.8472,68.0308 "
     id="polygon46" /><polygon
     points="301.4388,61.6443 311.8208,58.4038 320.6613,64.7904 310.2793,68.0308 "
     id="polygon48" /><ellipse
     fill="#ffffff"
     stroke="#20201e"
     stroke-width="3.809"
     cx="270.95309"
     cy="-23.957701"
     rx="17.930201"
     ry="13.2394"
     id="ellipse50" /></g>
	
	
	
	
	
	<g
   id="g3916"
   transform="translate(-0.26694021,-10.622996)"><path
     stroke="#000000"
     stroke-width="2.684"
     stroke-linejoin="bevel"
     d="m 618.1242,239.7759 c 2.676,-4.5933 1.1306,-10.4859 -3.4626,-13.1635 -4.5838,-2.6791 -10.4768,-1.1306 -13.1557,3.461 -2.2981,3.9358 -1.4809,8.8191 1.6867,11.8224 -13.1066,15.8902 -37.0232,44.8758 -42.8026,51.9042 -1.696,-0.7558 -3.4534,-1.4763 -5.2782,-2.1506 0.5161,-5.3874 4.3044,-46.5338 6.3167,-68.4149 4.3658,0.0999 8.3906,-2.7912 9.5336,-7.2017 1.3303,-5.1461 -1.7604,-10.3953 -6.9035,-11.7286 -5.1492,-1.3303 -10.3969,1.7605 -11.7301,6.905 -1.1399,4.4073 0.9739,8.8883 4.8421,10.9239 -9.4782,21.5064 -27.8693,63.2584 -27.9152,63.4315 -0.009,0.0415 -0.003,0.0845 -0.0123,0.1259 -1.6714,-0.2012 -3.389,-0.3748 -5.1339,-0.5192 -0.3502,-2.3135 -8.2371,-50.7118 -12.3509,-75.9183 4.7255,-1.1045 8.2494,-5.3336 8.2494,-10.3969 0,-5.9065 -4.7868,-10.6948 -10.6949,-10.6948 -5.9021,0 -10.6917,4.7884 -10.6917,10.6948 0,5.0633 3.5271,9.2923 8.2522,10.3969 -4.0925,25.092 -11.93,73.1623 -12.3415,75.8774 -1.8311,0.1444 -3.6161,0.3226 -5.3644,0.5238 -0.0123,-0.0599 -0.009,-0.1106 -0.0276,-0.1674 -0.043,-0.1721 -18.4374,-41.9279 -27.9092,-63.4346 3.8649,-2.0293 5.9788,-6.5118 4.839,-10.9223 -1.3334,-5.1432 -6.5842,-8.2339 -11.7302,-6.9019 -5.14,1.3319 -8.2339,6.5826 -6.9006,11.7255 1.1429,4.4118 5.1646,7.3015 9.5305,7.2002 2.0093,21.8584 5.7853,62.9187 6.3167,68.396 -1.7943,0.6498 -3.5148,1.3503 -5.186,2.0846 -6.0065,-7.3014 -29.6575,-35.9692 -42.6704,-51.7343 3.1737,-3.0032 3.994,-7.8866 1.696,-11.8224 -2.676,-4.5917 -8.5719,-6.1402 -13.162,-3.461 -4.587,2.6776 -6.1355,8.5703 -3.4563,13.1635 2.295,3.931 6.9529,5.6239 11.1281,4.3382 7.8253,20.3804 33.0843,85.9763 34.0501,86.8793 h 0.009 c 0.0184,0.1137 2.5009,16.3848 2.7744,21.7798 0.2734,5.3672 -2.0616,18.4987 -1.8926,18.5755 v 0.0123 c 0.003,0 0.006,-0.006 0.009,-0.006 18.7321,8.7716 40.0654,13.7028 62.9438,13.7028 23.0917,0 64.7748,-14.1206 64.5798,-14.2127 -2.7252,-5.7514 -1.6959,-39.8578 -1.6959,-39.8578 0.9647,-0.9125 26.5543,-65.9578 34.585,-86.873 4.1213,1.2899 8.7776,-0.409 11.0742,-4.3416"
     id="path52" /><g
     id="g58">
		<path
   stroke="#ffffff"
   stroke-width="2.9123"
   stroke-linecap="round"
   d="m 451.2241,367.4442 c 19.6967,-8.1172 38.1338,-11.6012 60.7258,-11.6012 21.6971,0 39.065,3.5916 57.2242,11.1158"
   id="path54" />
		<path
   stroke="#ffffff"
   stroke-width="2.9123"
   stroke-linecap="round"
   d="m 565.4272,329.408 c -16.0224,-6.1569 -35.6515,-9.7793 -56.8561,-9.7793 -21.396,0 -41.1823,3.6869 -57.2809,9.9423"
   id="path56" />
	</g><path
     fill="none"
     stroke="#ffffff"
     stroke-width="2.9123"
     stroke-linecap="round"
     d="m 567.3463,356.2127 c -17.7335,-5.859 -35.7868,-10.1112 -56.1136,-10.1112 -20.7108,0 -40.6695,4.3749 -59.3825,10.446"
     id="path60" /><polygon
     fill="#ffffff"
     points="509.3953,329.8484 500.4604,334.3159 509.3953,338.7834 518.3616,334.3159 "
     id="polygon62" /><polygon
     fill="#ffffff"
     points="546.8023,334.2844 554.9191,340.1362 545.3865,343.1249 537.2697,337.2732 "
     id="polygon64" /><polygon
     fill="#ffffff"
     points="472.0197,334.2844 463.9028,340.1362 473.4355,343.1249 481.5524,337.2732 "
     id="polygon66" /></g>
	
	
	
	
	
	
	<g
   id="g4557"><path
     fill="#ffffff"
     stroke="#20201e"
     stroke-width="3.4947"
     stroke-linejoin="bevel"
     d="m 572.5688,100.5929 c -19.0854,-8.9236 -40.0026,-13.609 -63.0948,-13.609 -23.0923,0 -45.4767,5.1156 -65.1902,14.0407 19.0854,8.916 40.7356,13.9362 63.831,13.9362 23.1237,0.0314 44.7689,-5.4427 64.4633,-14.3462 z"
     id="path68" /><path
     fill="#ffffff"
     stroke="#20201e"
     stroke-width="3.4947"
     stroke-linejoin="bevel"
     d="m 571.153,60.5431 -0.0123,-0.0215 c -17.1559,-7.0724 -37.1176,-11.3753 -63.0351,-11.3753 -25.9489,0 -46.0116,4.3057 -63.6706,11.397 0,0 1.9264,16.371 2.0062,21.7845 0.0952,6.0971 -1.6099,18.5909 -1.6099,18.5909 19.7121,-8.9251 41.5598,-13.9422 64.6521,-13.9422 22.6493,0 45.6686,4.6483 63.0948,13.609 -2.863,-5.7259 -1.4158,-40.0183 -1.4158,-40.0183 z"
     id="path70" /><path
     fill="#ffffff"
     stroke="#20201e"
     stroke-width="3.4947"
     stroke-linejoin="bevel"
     d="m 444.9005,100.8131 c 18.554,-8.8239 41.4906,-13.8378 64.583,-13.8378 22.6493,0 41.6637,3.1936 63.0948,13.609 -0.8633,-2.4072 -1.441,-9.8853 -1.6284,-12.5982 -18.9688,-7.0466 -39.8893,-11.0466 -61.4212,-11.0466 -21.7706,0 -43.674,4.2183 -63.3245,11.4093 -0.409,2.8 -1.2899,12.427 -1.2899,12.427 z"
     id="path72" /><path
     fill="#ffffff"
     stroke="#20201e"
     stroke-width="3.4947"
     d="m 613.7196,-43.8284 c -4.587,-2.6791 -10.4796,-1.1306 -13.1588,3.4626 -2.3012,3.9358 -1.4809,8.8176 1.6867,11.824 -13.1066,15.8871 -37.0294,44.8727 -42.8026,51.9042 -1.696,-0.7573 -3.4534,-1.4763 -5.2814,-2.1476 0.5192,-5.3921 4.3073,-46.537 6.3167,-68.4212 4.3658,0.0998 8.3938,-2.7912 9.5336,-7.1986 1.3303,-5.1476 -1.7574,-10.3985 -6.9067,-11.7302 -5.14,-1.3319 -10.3906,1.7589 -11.7242,6.9035 -1.1429,4.4089 0.9739,8.8915 4.8422,10.9207 -9.4782,21.5126 -27.8693,63.2616 -27.9152,63.4346 -0.009,0.0415 -0.003,0.0845 -0.0123,0.1275 -1.6713,-0.1982 -3.389,-0.3748 -5.14,-0.5192 -0.3472,-2.315 -8.2339,-50.7118 -12.3446,-75.9183 4.7255,-1.106 8.243,-5.3351 8.243,-10.3985 0,-5.9021 -4.7836,-10.6933 -10.6888,-10.6933 -5.9052,0 -10.6917,4.7915 -10.6917,10.6933 0,5.0633 3.5271,9.2923 8.2494,10.3985 -4.0925,25.0935 -11.9299,73.1623 -12.3414,75.8774 -1.8281,0.1475 -3.6162,0.3211 -5.3613,0.5269 -0.0123,-0.0614 -0.009,-0.1137 -0.0276,-0.169 -0.043,-0.1736 -18.4374,-41.9279 -27.9093,-63.4378 3.8619,-2.0278 5.9757,-6.5086 4.8359,-10.9207 -1.3304,-5.1445 -6.5842,-8.2355 -11.7271,-6.9035 -5.1429,1.3321 -8.2339,6.5826 -6.9006,11.7255 1.1429,4.4133 5.1646,7.3014 9.5304,7.2001 2.0093,21.8597 5.7853,62.9187 6.3168,68.396 -1.7943,0.6544 -3.5208,1.3534 -5.186,2.0892 -6.0066,-7.3062 -29.6575,-35.9724 -42.6704,-51.7374 3.1737,-3.0063 3.9911,-7.8882 1.6959,-11.824 -2.676,-4.5933 -8.5719,-6.1418 -13.162,-3.4626 -4.587,2.6775 -6.1387,8.5703 -3.4626,13.1635 2.3012,3.9326 6.9589,5.6239 11.1343,4.3397 7.8253,20.3804 33.0843,85.9732 34.0501,86.8793 17.4111,-7.0863 37.4322,-11.397 63.3749,-11.397 25.9306,0 45.9455,4.3057 63.3591,11.3907 0.9586,-0.9079 26.5511,-65.9609 34.5787,-86.873 4.1783,1.2842 8.8329,-0.4071 11.1312,-4.3397 2.5798,-4.5901 1.0381,-10.4828 -3.5551,-13.1601 z"
     id="path74" /><polygon
     points="517.4178,63.6578 508.4514,59.1903 499.5166,63.6578 508.4514,68.1252 "
     id="polygon76" /><polygon
     points="480.6085,66.5522 471.0759,63.5948 462.959,69.4466 472.4917,72.4039 "
     id="polygon78" /><polygon
     points="536.3259,66.6151 545.8585,63.6263 553.9753,69.478 544.4427,72.4668 "
     id="polygon80" /></g>
	<g
   id="g94"
   transform="translate(-7.9222334,3.9227484)">
		<path
   stroke="#000000"
   stroke-width="2.684"
   stroke-linecap="square"
   d="m -379.3941,368.9229 h -3.0493 v -18.3175 l -14.6781,-16.437 h -0.149 v -96.9625 h 0.149 l 19.0977,-18.2668 h 0.1213 v -31.2504 c 0,-2.7313 -2.1199,-4.9435 -4.7298,-4.9435 h -26.4209 v 16.9854 l -14.8288,4.9126 -13.6644,-4.9126 v -16.9854 h -32.5652 v 16.9854 l -13.6672,4.9126 -14.8272,-4.9126 v -16.9854 h -26.4162 c -2.6115,0 -4.7282,2.2121 -4.7282,4.9435 v 31.2504 h 0.0538 l 19.1653,18.2668 v 96.9625 l -14.6797,16.437 v 18.3175 h -3.0524 c -2.7313,0 -4.945,2.2152 -4.945,4.9494 v 11.6226 c 0,2.7282 2.2136,4.9435 4.945,4.9435 h 148.8636 c 2.7344,0 4.9466,-2.2152 4.9466,-4.9435 v -11.6226 c 0,-2.7057 -2.2148,-4.9394 -4.9488,-4.9394 z"
   id="path82" />
		
			<line
   fill="none"
   stroke="#ffffff"
   stroke-width="2.684"
   stroke-linecap="round"
   x1="-520.37347"
   y1="368.92291"
   x2="-388.3667"
   y2="368.92291"
   id="line84" />
		
			<line
   fill="none"
   stroke="#ffffff"
   stroke-width="2.684"
   stroke-linecap="round"
   x1="-519.7915"
   y1="350.61261"
   x2="-388.94559"
   y2="350.61261"
   id="line86" />
		
			<line
   fill="none"
   stroke="#ffffff"
   stroke-width="2.684"
   stroke-linecap="round"
   x1="-402.90161"
   y1="334.19009"
   x2="-506.99631"
   y2="334.19009"
   id="line88" />
		
			<line
   fill="none"
   stroke="#ffffff"
   stroke-width="2.684"
   stroke-linecap="round"
   x1="-506.41739"
   y1="237.22749"
   x2="-402.31961"
   y2="237.22749"
   id="line90" />
		
			<line
   fill="none"
   stroke="#ffffff"
   stroke-width="2.684"
   stroke-linecap="round"
   x1="-523.28052"
   y1="218.94881"
   x2="-381.9707"
   y2="218.94881"
   id="line92" />
	</g>
	
	
	
	
	
	<g
   id="g4840"><g
     id="g4124"><path
       fill="#ffffff"
       stroke="#20201e"
       stroke-width="3.4947"
       d="m -380.5172,120.193 c 2.7344,0 4.945,-2.2121 4.945,-4.9466 v -11.6226 c 0,-2.7344 -2.2106,-4.945 -4.945,-4.945 h -148.8667 c -2.7328,0 -4.945,2.2106 -4.945,4.945 v 11.6226 c 0,2.7344 2.212,4.9466 4.945,4.9466 z"
       id="path96" /><rect
       x="-526.33221"
       y="80.363503"
       fill="#ffffff"
       stroke="#20201e"
       stroke-width="3.4947"
       width="142.7664"
       height="18.319099"
       id="rect98" /><polygon
       fill="#ffffff"
       stroke="#20201e"
       stroke-width="3.4947"
       stroke-linejoin="bevel"
       points="-511.6526,63.9094 -526.3322,80.3635 -383.5658,80.3635 -398.2454,63.9094 "
       id="polygon100" /><polygon
       fill="#ffffff"
       stroke="#20201e"
       stroke-width="3.4947"
       stroke-linejoin="round"
       points="-511.6526,-33.0436 -530.8688,-51.3664 -379.092,-51.3664 -398.2454,-33.0436 "
       id="polygon102" /><rect
       x="-511.6525"
       y="-33.043598"
       fill="#ffffff"
       stroke="#20201e"
       stroke-width="3.4947"
       width="113.2561"
       height="96.962502"
       id="rect104" /><path
       fill="#ffffff"
       stroke="#20201e"
       stroke-width="3.4947"
       stroke-linecap="square"
       d="m -383.7577,-87.5087 h -26.4161 v 16.987 l -14.8241,4.9098 -13.6688,-4.9098 v -16.987 h -32.562 v 16.987 l -13.6688,4.9098 -14.8256,-4.9098 v -16.987 h -26.4162 c -2.6115,0 -4.7283,2.2121 -4.7283,4.9419 v 31.2536 h 151.8429 v -31.2536 c -0.003,-2.7308 -2.1205,-4.9425 -4.7317,-4.9425 z"
       id="path106" /></g></g>
	
	
	
	
	
	
	
	
	
	<g
   id="g4138"><path
     fill="#20201e"
     d="m 149.8915,385.1882 c -1.9648,-1.0723 -19.6615,-18.4619 -36.0731,-18.4619 -8.5335,0 -15.2252,2.5746 -21.1241,4.8481 -5.9848,2.3043 -11.6349,4.4794 -19.8135,4.4794 -9.532,0 -17.4448,-2.9095 -24.4297,-5.4748 -5.6315,-2.0646 -10.4951,-3.8527 -15.4725,-3.8527 -4.9739,0 -9.8378,1.7881 -15.4693,3.8527 -6.9818,2.5654 -14.8964,5.4748 -24.4281,5.4748 -8.1801,0 -13.8302,-2.1752 -19.8135,-4.4794 -5.9005,-2.2736 -12.5906,-4.8481 -21.1225,-4.8481 -16.4157,0 -34.1131,17.3894 -36.0762,18.4619 0,0 7.1448,-4.4703 13.7934,-4.4703 6.6502,0 12.4091,4.6638 22.2838,4.6638 5.0649,0 9.1926,1.5884 14.4217,3.6007 6.6241,2.5531 14.8656,5.7237 26.5143,5.7237 12.8518,0 23.2609,-3.8219 30.8619,-6.6118 3.4594,-1.2719 7.3798,-2.7129 9.0359,-2.7129 1.6621,0 5.5793,1.4409 9.0387,2.7129 7.6025,2.7897 18.0101,6.6118 30.8635,6.6118 11.6459,0 19.8905,-3.1706 26.5143,-5.7237 5.226,-2.0124 9.3552,-3.6007 14.4233,-3.6007 9.8731,0 17.3557,-4.6638 22.2806,-4.6638 4.9249,0 13.8743,4.4674 13.8743,4.4674 z"
     id="path108" /><path
     fill="#ffffff"
     stroke="#20201e"
     stroke-width="4.1522"
     d="m 95.6844,278.5043 c 0,-29.4301 -25.1118,-76.0819 -44.3316,-82.3898 -0.6682,-0.2197 -1.3564,-0.404 -2.0631,-0.5515 3.3518,-1.2428 5.7485,-4.458 5.7485,-8.2431 0,-4.8576 -3.9402,-8.793 -8.793,-8.793 -4.8544,0 -8.7977,3.9358 -8.7977,8.793 0,3.3751 1.9079,6.2985 4.6962,7.7762 -3.9402,0.255 -8.1971,1.2796 -12.5828,3.0462 -2.7974,-1.272 -5.5808,-2.1829 -8.323,-2.6822 3.2074,-1.3103 5.472,-4.4627 5.472,-8.1402 0,-4.8576 -3.9358,-8.793 -8.793,-8.793 -4.8572,0 -8.793,3.9358 -8.793,8.793 0,3.4302 1.9694,6.3982 4.8358,7.8466 -1.4886,0.1644 -2.9541,0.4731 -4.3872,0.9478 -19.1745,6.3092 -43.7275,51.2341 -43.7275,82.3898 0,24.8463 10.0666,46.2507 21.6863,61.7451 1.7297,4.5933 4.3595,4.7282 4.9281,5.2967 0.0015,0 0.0031,-0.003 0.0046,-0.003 -0.0108,0.0768 -2.3027,14.9747 -2.527,18.3389 -0.3456,5.186 -0.8679,11.3124 -0.8679,11.3124 12.6781,5.5765 26.5697,8.8147 41.6605,8.8147 15.0943,0 28.301,-3.5516 40.9747,-9.1249 -0.4516,-4.1447 -0.9693,-8.2862 -2.0062,-14.5076 -0.5407,-3.2537 -2.4026,-14.8394 -2.4026,-14.8394 0.5653,-0.5623 3.9848,-4.8513 3.9848,-4.8513 12.3327,-15.5732 24.3822,-36.3374 24.3822,-62.1667 z"
     id="path110" /><path
     stroke="#000000"
     stroke-width="1.6765"
     d="m -7.2242,345.5475 c 10.2817,-4.4304 22.1041,-8.3138 37.4228,-8.3138 15.3142,0 27.1319,3.8804 37.4133,8.3044 0.5638,-0.5622 1.9079,-2.0032 4.6839,-5.8898 -8.6502,-9.3615 -21.2393,-14.5047 -41.8335,-14.5047 -21.9736,0 -33.9683,5.7331 -42.617,15.1069 1.7618,4.5618 4.4045,4.7191 4.9708,5.2854 z"
     id="path112" /><path
     fill="#ffffff"
     stroke="#000000"
     stroke-width="3.1886"
     stroke-linejoin="bevel"
     d="m 71.3652,374.869 c -12.6797,-5.5701 -25.6466,-8.3322 -40.7387,-8.3322 -15.0921,0 -29.2196,3.0724 -41.8965,8.6426 12.6765,5.5765 26.5681,8.8147 41.6605,8.8147 15.1012,0 28.3148,-3.5551 40.9935,-9.1237 z"
     id="path114" /><path
     stroke="#000000"
     stroke-width="1.6765"
     d="m 71.0191,340.671 c 7.9851,-13.3463 18.4908,-38.5176 5.3628,-81.3547 -11.0145,-35.9409 -43.4664,-71.0104 -67.0715,-63.2175 -20.9366,6.9129 -43.7275,56.4188 -43.7275,82.3898 0,24.8463 10.0634,46.2507 21.6816,61.7451 l 83.7804,0.409 z"
     id="path116" /><circle
     stroke="#000000"
     stroke-width="1.6765"
     cx="17.6614"
     cy="187.2991"
     r="8.7938995"
     id="circle118" /><path
     stroke="#000000"
     stroke-width="1.6765"
     stroke-linejoin="bevel"
     d="m 67.0235,345.516 -0.0031,-0.009 c -10.2817,-4.4212 -22.1085,-8.1263 -37.4133,-8.1263 -15.3171,0 -27.1287,3.7083 -37.4133,8.1355 0,0 -2.3043,14.9716 -2.5285,18.3448 -0.3456,5.186 -0.8664,11.3124 -0.8664,11.3124 12.6749,-5.5701 26.8063,-8.6426 41.8933,-8.6426 14.8026,0 28.2425,2.9618 40.7387,8.3322 -0.4501,-4.1447 -0.9693,-8.2862 -2.0047,-14.5076 -0.5663,-3.2719 -2.4225,-14.881 -2.4225,-14.881 z"
     id="path120" /><path
     fill="none"
     stroke="#ffffff"
     stroke-width="1.6765"
     stroke-linecap="round"
     stroke-linejoin="bevel"
     d="m 66.646,365.588 c -11.397,-3.5393 -23.5649,-5.4843 -36.1203,-5.4843 -12.7687,0 -25.8184,2.08 -37.5234,5.7545"
     id="path122" /><g
     id="g128">
		<path
   fill="none"
   stroke="#ffffff"
   stroke-width="1.6765"
   stroke-linecap="round"
   d="m -4.55,344.1631 c 9.5229,-3.8344 20.442,-6.9529 34.1665,-6.9529 13.7978,0 24.7553,3.1524 34.3144,7.0111"
   id="path124" />
		<path
   fill="none"
   stroke="#ffffff"
   stroke-width="1.6765"
   stroke-linecap="round"
   d="M 70.1382,337.3991 C 58.05,327.7306 48.3767,325.1404 30.4755,325.1404 c -14.993,0 -30.4639,3.9694 -37.8758,10.7593"
   id="path126" />
	</g><polygon
     fill="#ffffff"
     stroke="#000000"
     stroke-width="1.6765"
     points="51.4818,278.756 59.7875,270.4503 51.4818,262.1446 47.3919,266.266 26.6907,266.266 26.6907,247.5782 30.8121,243.4568 22.5064,235.1512 14.2007,243.4568 18.3535,247.6096 18.3535,266.266 -2.4736,266.266 -6.5949,262.1446 -14.9006,270.4503 -6.5949,278.756 -2.4106,274.6031 18.3535,274.6031 18.3535,297.3808 14.2007,301.5336 22.5064,309.8393 30.8121,301.5336 26.6907,297.4123 26.6907,274.6031 47.329,274.6031 "
     id="polygon130" /></g>
	
	
	
	
	
	
	
	
	<g
   id="g3956"><path
     fill="#ffffff"
     stroke="#20201e"
     stroke-width="4.1522"
     stroke-linecap="round"
     stroke-linejoin="round"
     d="m 146.6196,115.0649 c -1.9648,-1.0707 -19.6615,-18.4603 -36.0762,-18.4603 -8.5319,0 -15.2236,2.5762 -21.1241,4.8465 -5.9836,2.3043 -11.6336,4.481 -19.8122,4.481 -9.532,0 -17.4448,-2.908 -24.4313,-5.4736 -5.6302,-2.0677 -10.4951,-3.8543 -15.4709,-3.8543 -4.9739,0 -9.8362,1.7866 -15.4678,3.8543 -6.9818,2.5654 -14.8964,5.4736 -24.4297,5.4736 -8.1786,0 -13.8302,-2.1768 -19.8135,-4.481 -5.9005,-2.2705 -12.5919,-4.8465 -21.1254,-4.8465 -16.4125,0 -34.1099,17.3894 -36.0731,18.4603 0,0 7.5317,-4.4687 13.7934,-4.4687 6.2617,0 12.4076,4.6622 22.2806,4.6622 5.0677,0 9.1954,1.5899 14.4248,3.6038 6.6241,2.5501 14.8672,5.7237 26.5143,5.7237 12.8502,0 23.2609,-3.8219 30.8619,-6.6131 3.461,-1.2735 7.3798,-2.7144 9.0359,-2.7144 1.6621,0 5.5793,1.4409 9.0387,2.7144 7.601,2.7912 18.0101,6.6131 30.8635,6.6131 11.6443,0 19.8889,-3.1738 26.5143,-5.7237 5.2244,-2.0139 9.3552,-3.6038 14.4217,-3.6038 9.8746,0 13.9469,-4.6622 22.2822,-4.6622 8.4001,0 13.8743,4.4674 13.8743,4.4674 z"
     id="path132" /><path
     fill="#ffffff"
     stroke="#20201e"
     stroke-width="4.1522"
     d="m 47.8009,-74.0026 c -0.6667,-0.2182 -1.3564,-0.4025 -2.0585,-0.5499 3.3487,-1.2443 5.7438,-4.458 5.7438,-8.2431 0,-4.8576 -3.9358,-8.793 -8.793,-8.793 -4.8572,0 -8.7946,3.9358 -8.7946,8.793 0,3.3751 1.9018,6.2985 4.693,7.7762 -25.2395,1.6391 -63.5542,34.887 -64.7749,91.18 -0.4854,22.3668 2.3504,40.6758 10.1619,53.9743 L 68.4291,69.5327 C 80.7754,53.9558 92.1293,34.2399 92.1293,8.3885 c 0,-34.3931 -25.1058,-76.1039 -44.3284,-82.415 z"
     id="path134" /><path
     fill="#ffffff"
     stroke="#20201e"
     stroke-width="4.1522"
     d="m 73.0955,-10.7819 c -9.2847,-30.2965 -33.7953,-59.955 -55.4089,-63.8719 3.2121,-1.3103 5.4736,-4.4627 5.4736,-8.1402 0,-4.8576 -3.9358,-8.793 -8.793,-8.793 -4.856,0 -8.7946,3.9358 -8.7946,8.793 0,3.4302 1.9709,6.3982 4.839,7.8467 -1.4916,0.1628 -2.9556,0.4731 -4.3872,0.9462 -19.1745,6.3107 -43.7306,48.7078 -43.7306,82.393 0,24.8462 10.0666,46.2507 21.6847,61.7452 L 68.429,69.5349 C 76.42,56.1955 86.2044,32.0335 73.0852,-10.7879 Z"
     id="path136" /><path
     fill="#ffffff"
     stroke="#000000"
     stroke-width="3.1886"
     stroke-linejoin="bevel"
     d="M 68.1561,104.7772 C 57.5443,99.909 42.5111,96.4435 27.4237,96.4435 c -15.0943,0 -29.2243,3.0723 -41.8996,8.6455 12.6749,5.5701 26.5697,8.81 41.6605,8.81 15.1012,0 28.3148,-3.5551 40.9935,-9.1236 z"
     id="path138" /><path
     fill="#ffffff"
     stroke="#20201e"
     stroke-width="4.1522"
     stroke-linejoin="bevel"
     d="M 63.7516,75.4241 63.7439,75.4133 C 53.4622,70.9937 41.6338,67.2885 26.3306,67.2885 c -15.3171,0 -27.1287,3.7083 -37.4133,8.1355 0,0 -2.3043,14.9685 -2.527,18.348 -0.3472,5.1816 -0.8679,11.3124 -0.8679,11.3124 12.6749,-5.5733 26.8047,-8.6455 41.8996,-8.6455 14.7979,0 28.238,2.9602 40.7324,8.3337 -0.4486,-4.1478 -0.9678,-8.2921 -2.0032,-14.5107 -0.5663,-3.3034 -2.4225,-14.881 -2.4225,-14.881 z"
     id="path140" /><path
     fill="#ffffff"
     stroke="#20201e"
     stroke-width="4.1522"
     stroke-linejoin="bevel"
     d="m -14.4917,105.0917 c 12.6749,-5.5733 26.8047,-8.6455 41.8996,-8.6455 14.7979,0 28.2381,2.9602 40.7324,8.3337 -0.3211,-3.4701 -1.0891,-5.6331 -1.573,-10.0618 -12.5551,-4.3982 -25.2839,-6.6423 -39.3544,-6.6423 -14.2298,0 -28.3302,2.5838 -41.0061,7.0771 -0.0629,3.9012 -0.7236,9.9417 -0.7236,9.9417 z"
     id="path142" /><path
     fill="#ffffff"
     stroke="#20201e"
     stroke-width="4.1522"
     d="m -11.0939,75.4241 c 10.2833,-4.424 22.1057,-8.2125 37.4259,-8.3107 13.0437,-0.086 27.1334,3.8804 37.4165,8.3044 0.5638,-0.5653 2.9525,-1.2904 4.6823,-5.8898 -8.647,-9.3615 -21.5035,-14.2512 -42.0978,-14.2512 -21.9751,0 -33.7072,5.4795 -42.3527,14.8533 1.6989,4.5933 4.3416,4.7191 4.9079,5.2854 z"
     id="path144" /><line
     fill="none"
     stroke="#000000"
     stroke-width="3.1886"
     x1="26.344601"
     y1="55.2892"
     x2="26.344601"
     y2="67.1185"
     id="line146" /><polygon
     fill="#ffffff"
     stroke="#000000"
     stroke-width="2.4221"
     points="48.2099,8.6326 56.5156,0.327 48.2099,-7.9787 44.0886,-3.8573 23.3873,-3.8573 23.3873,-22.5262 27.5087,-26.6476 19.203,-34.947 10.8973,-26.6476 15.0501,-22.4822 15.0501,-3.8573 -5.7455,-3.8573 -9.8669,-7.9787 -18.1726,0.327 -9.8669,8.6326 -5.714,4.4798 15.0501,4.4798 15.0501,27.289 10.8973,31.4418 19.203,39.7475 27.5087,31.4418 23.3873,27.3204 23.3873,4.4798 44.0571,4.4798 "
     id="polygon148" /></g>
	
	
	
	
	
	
	
	
	
	
	
	
	
	
	<g
   id="g4156"><path
     fill="#20201e"
     stroke="#20201e"
     stroke-width="2.684"
     d="m 713.5765,204.8543 c 0,0 3.4903,-18.7567 3.4903,-21.3745 0,-2.6146 2.6146,-3.0524 5.2322,0.4378 2.6176,3.4902 14.394,20.4986 14.394,20.4986 l -23.1238,0.409 z"
     id="path150" /><g
     id="g3906"
     transform="translate(-3.2063,2.5629)"><path
       fill="#20201e"
       stroke="#20201e"
       stroke-width="2.684"
       d="m 870.0316,348.725 c -1.1829,-8.4551 -2.802,-16.517 -4.7682,-24.1824 l -6.3198,-2.5255 4.2214,-5.0479 c -2.4056,-8.1081 -5.2014,-15.7427 -8.2708,-22.9183 l -5.9788,-1.6928 2.9888,-5.0966 c -3.2137,-6.8252 -6.664,-13.1928 -10.2493,-19.1207 l -5.5734,-1.1183 2.0001,-4.604 c -4.0157,-6.1953 -8.145,-11.8564 -12.2402,-16.9933 l -5.8989,-0.6467 1.5761,-4.5961 c -4.7868,-5.6239 -9.4537,-10.5168 -13.7705,-14.6967 l -5.908,-0.3318 1.0323,-4.229 c -10.5259,-9.5289 -17.9702,-14.1637 -17.9702,-14.1637 l -13.3741,4.0711 c 0,0 -6.3966,-3.4918 -11.6288,-6.979 0,0 -3.4903,-11.6304 -4.6484,-18.0287 -1.1675,-6.3935 -4.6578,-3.4855 -5.8159,-1.7451 -1.1675,1.7451 -13.2324,15.1207 -13.2324,15.1207 0,0 -7.2172,-0.9893 -12.3541,0 -7.561,1.4548 -11.0513,6.5442 -19.7737,14.8319 -6.3658,6.0402 -10.1817,11.3401 -12.3569,17.0072 -2.1813,5.6699 0.4332,5.6699 -0.4363,10.9022 -0.8756,5.237 -24.4281,44.4889 -27.0397,49.2867 -2.6207,4.7975 -8.9406,19.468 3.4871,28.7864 3.4839,2.6176 6.1047,3.9294 8.2831,4.7959 0,0 3.4903,-0.8664 4.799,-2.6115 0.2304,-0.3134 0.3533,-0.5069 0.4117,-0.6114 0.04,-0.1198 0.0615,-0.1229 0,0 -0.1352,0.341 -0.4424,1.6161 0.8972,3.2228 2.1813,2.6176 4.9835,2.4272 6.5442,2.6176 2.3227,0.295 6.5378,-1.742 10.0313,-6.9774 3.4871,-5.2323 5.6686,-6.9805 8.2861,-10.0313 2.6146,-3.0539 17.0515,-9.8086 22.6833,-19.1915 1.3058,-2.1768 4.3596,-1.3073 6.5379,0.4378 2.1813,1.7451 14.3908,2.1844 19.6263,-6.5426 0,0 2.4733,22.9428 -7.853,38.8196 -17.0056,26.1642 -45.7944,32.7068 -54.5186,57.133 h 178.8238 c 0,-8.4428 -0.4455,-16.5478 -1.2505,-24.3391 l -5.9479,-3.14 5.0338,-4.8764 z"
       id="path152" /><path
       fill="none"
       stroke="#ffffff"
       stroke-width="2.684"
       d="m 777.9141,216.6836 c 0,0 76.1763,56.9915 76.1763,159.9221"
       id="path154" /><path
       fill="none"
       stroke="#20201e"
       stroke-width="2.684"
       d="m 681.2032,320.945 c 0.063,-0.0944 0.0315,-0.0944 0,0 z"
       id="path156" /><path
       fill="none"
       stroke="#ffffff"
       stroke-width="2.684"
       d="m 762.2151,256.2299 c 1.4501,16.2788 -6.1078,27.9108 -6.3967,28.9276 0,0 18.3204,-9.4474 20.0655,-21.9534"
       id="path158" /><path
       fill="none"
       stroke="#ffffff"
       stroke-width="2.684"
       d="m 755.7971,285.1425 c 0,0 12.2125,5.9634 21.227,2.1829"
       id="path160" /><path
       fill="none"
       stroke="#20201e"
       stroke-width="2.684"
       d="m 680.7943,321.5742 c 0,0 8.1417,-10.4705 10.4705,-15.2664"
       id="path162" /><path
       fill="none"
       stroke="#ffffff"
       stroke-width="2.684"
       d="m 730.9429,224.9578 c 0,0 -13.4108,0.0645 -17.8843,7.4106 -6.1047,10.0342 0.8756,11.3416 0.8756,11.3416 0,0 6.9742,2.1829 11.7733,-4.3595 5.1092,-6.9667 0.8694,-11.3416 0.8694,-11.3416 l 4.3416,-3.0517 z"
       id="path164" /><path
       fill="none"
       stroke="#ffffff"
       stroke-width="2.684"
       d="m 665.9762,298.8909 c 4.796,-1.3073 7.8467,-0.8726 10.025,0.4393 0,0 -2.1783,-6.5442 1.7451,-12.2156 3.9294,-5.6699 10.4737,-6.1031 16.136,-17.0056"
       id="path166" /><line
       fill="none"
       stroke="#ffffff"
       stroke-width="2.684"
       x1="793.29852"
       y1="231.0612"
       x2="801.60413"
       y2="225.8387"
       id="line168" /><line
       fill="none"
       stroke="#ffffff"
       stroke-width="2.684"
       x1="810.31879"
       y1="249.8119"
       x2="818.62451"
       y2="245.9108"
       id="line170" /><line
       fill="none"
       stroke="#ffffff"
       stroke-width="2.684"
       x1="825.57739"
       y1="271.58289"
       x2="835.17291"
       y2="267.6503"
       id="line172" /><line
       fill="none"
       stroke="#ffffff"
       stroke-width="2.684"
       x1="837.81561"
       y1="296.49991"
       x2="847.82019"
       y2="293.00781"
       id="line174" /><line
       fill="none"
       stroke="#ffffff"
       stroke-width="2.684"
       x1="847.37982"
       y1="325.72711"
       x2="857.8562"
       y2="322.67542"
       id="line176" /><line
       fill="none"
       stroke="#ffffff"
       stroke-width="2.684"
       x1="853.07422"
       y1="355.36319"
       x2="863.95972"
       y2="354.0733"
       id="line178" /></g></g>
	
	
	
	
	
	
	
	
	
	
	
	
	
	
	<g
   id="g3884"><path
     fill="#ffffff"
     stroke="#20201e"
     stroke-width="3.4947"
     d="m 703.1,-59.9081 c 0,0 3.4903,-18.7551 3.4903,-21.3714 0,-2.6163 2.6146,-3.0539 5.2322,0.4363 2.6177,3.4887 14.394,20.4987 14.394,20.4987 l -23.1238,0.4342 z"
     id="path180" /><path
     fill="#ffffff"
     stroke="#20201e"
     stroke-width="3.4947"
     d="m 859.5866,83.9501 c -1.1829,-8.4583 -2.7989,-16.5217 -4.7682,-24.1872 l -6.3198,-2.5224 4.2183,-5.0479 c -2.4026,-8.1081 -5.1955,-15.7427 -8.2676,-22.9199 l -5.982,-1.6898 2.9587,-5.057 C 838.2123,15.7008 834.762,9.3347 831.1798,3.4065 l -5.5764,-1.1199 2.0032,-4.604 c -4.0186,-6.1969 -8.145,-11.8564 -12.2402,-16.9933 l -5.9021,-0.6467 1.5761,-4.5961 c -4.7899,-5.6255 -9.4568,-10.5183 -13.7733,-14.6982 l -5.9021,-0.3318 1.0292,-4.229 C 781.8651,-53.3398 774.424,-57.9762 774.424,-57.9762 l -13.374,4.0723 c 0,0 -6.3935,-3.4903 -11.6288,-6.979 0,0 -3.4903,-11.6305 -4.6484,-18.0271 -1.1675,-6.3966 -4.6546,-3.4903 -5.819,-1.7451 -1.1614,1.7451 -13.2297,15.1176 -13.2297,15.1176 0,0 -7.2172,-0.9862 -12.36,0 -7.5551,1.4578 -11.045,6.5442 -19.7738,14.8303 -6.3567,6.0449 -10.1725,11.3432 -12.351,17.01 -2.1813,5.6699 0.4332,5.6699 -0.4332,10.9037 -0.8787,5.2338 -24.4313,44.4857 -27.0429,49.2835 -2.6207,4.7975 -8.9374,19.4696 3.4871,28.7848 3.4839,2.6176 6.1078,3.9295 8.2861,4.7975 0,0 3.4871,-0.8679 4.796,-2.613 0.2335,-0.3118 0.3503,-0.5023 0.4086,-0.6083 0.043,-0.1167 0.0645,-0.1244 0,0 -0.1321,0.3395 -0.4363,1.6145 0.9002,3.2213 2.1814,2.6192 4.9835,2.4241 6.541,2.6192 2.3258,0.2919 6.5411,-1.742 10.0341,-6.979 3.4903,-5.2338 5.6715,-6.9806 8.2893,-10.0329 2.6115,-3.0524 17.0487,-9.807 22.6802,-19.1899 1.3057,-2.1767 4.3596,-1.3088 6.5378,0.4378 2.1814,1.7451 14.394,2.1829 19.6263,-6.5442 0,0 2.4732,22.9444 -7.8498,38.8196 -17.0084,26.1688 -45.7945,32.7068 -54.5186,57.1362 h 178.8206 c 0,-8.4413 -0.4455,-16.5462 -1.2504,-24.3423 l -5.9448,-3.1369 5.1282,-4.845 z"
     id="path182" /><path
     fill="none"
     stroke="#20201e"
     stroke-width="2.684"
     d="m 767.4376,-48.0788 c 0,0 76.1763,56.9946 76.1763,159.9221"
     id="path184" /><path
     fill="none"
     stroke="#20201e"
     stroke-width="2.684"
     d="m 670.7268,56.8622 c 0.0629,-0.1258 0.0629,-0.1258 0,0 z"
     id="path186" /><path
     fill="none"
     stroke="#20201e"
     stroke-width="2.684"
     d="m 751.7386,-8.545 c 1.4532,16.2788 -6.1078,27.9093 -6.3967,28.9261 0,0 18.3204,-9.4474 20.0627,-21.9534"
     id="path188" /><path
     fill="none"
     stroke="#20201e"
     stroke-width="2.684"
     d="m 745.3521,20.399 c 0,0 12.2125,5.965 21.227,2.1845"
     id="path190" /><path
     fill="none"
     stroke="#20201e"
     stroke-width="2.684"
     d="m 670.3178,57.46 c 0,0 8.1417,-10.4689 10.4736,-15.2664"
     id="path192" /><path
     fill="none"
     stroke="#20201e"
     stroke-width="2.684"
     d="m 720.4979,-39.7888 c 0,0 -13.4108,0.063 -17.8811,7.4122 -6.1047,10.0329 0.8694,11.3401 0.8694,11.3401 0,0 6.9774,2.1829 11.7764,-4.3595 5.1093,-6.9667 0.8726,-11.3401 0.8726,-11.3401 l 4.3416,-3.0549 z"
     id="path194" /><path
     fill="none"
     stroke="#20201e"
     stroke-width="2.684"
     d="m 655.4996,34.7767 c 4.7991,-1.3073 7.853,-0.8695 10.0314,0.4378 0,0 -2.1783,-6.5426 1.742,-12.2141 3.9294,-5.6699 10.4677,-6.1078 16.1392,-17.01"
     id="path196" /><line
     fill="none"
     stroke="#20201e"
     stroke-width="2.684"
     x1="782.85352"
     y1="-33.685398"
     x2="791.12769"
     y2="-38.9174"
     id="line198" /><line
     fill="none"
     stroke="#20201e"
     stroke-width="2.684"
     x1="799.87378"
     y1="-14.9316"
     x2="808.14801"
     y2="-18.854799"
     id="line200" /><line
     fill="none"
     stroke="#20201e"
     stroke-width="2.684"
     x1="815.13232"
     y1="6.8393998"
     x2="824.72791"
     y2="2.9068"
     id="line202" /><line
     fill="none"
     stroke="#20201e"
     stroke-width="2.684"
     x1="827.33917"
     y1="31.725"
     x2="837.37518"
     y2="28.2328"
     id="line204" /><line
     fill="none"
     stroke="#20201e"
     stroke-width="2.684"
     x1="836.93481"
     y1="60.952099"
     x2="847.41107"
     y2="57.900398"
     id="line206" /><line
     fill="none"
     stroke="#20201e"
     stroke-width="2.684"
     x1="842.59772"
     y1="90.619797"
     x2="853.51459"
     y2="89.298401"
     id="line208" /></g>
	<path
   stroke="#000000"
   stroke-width="2.4843"
   stroke-linejoin="round"
   d="m 1028.3749,346.35725 c -11.7978,-23.4204 -10.6057,-65.1398 -9.6194,-81.3044 18.6584,-1.2796 32.0775,-4.8129 32.0775,-8.9774 0,-4.0877 -12.9163,-7.5701 -31.0339,-8.9066 11.5704,-5.9634 19.4879,-18.0177 19.4879,-31.9297 0,-19.8352 -16.0715,-35.9126 -35.9063,-35.9126 -19.83481,0 -35.90631,16.0778 -35.90631,35.9126 0,13.9117 7.9206,25.9659 19.4878,31.9297 -18.1146,1.3365 -31.0368,4.8188 -31.0368,8.9066 0,4.1645 13.4263,7.6978 32.0807,8.9774 0.9893,16.1668 2.1813,57.8849 -9.6164,81.3044 -23.1226,4.6483 -39.3481,15.5615 -39.3481,28.2717 h 128.67501 c 0,-12.7102 -16.2024,-23.6271 -39.326,-28.2834 z"
   id="path210" />
	<g
   id="g3887"><path
     fill="#ffffff"
     stroke="#000000"
     stroke-width="3.4947"
     stroke-linejoin="round"
     d="m 1026.3293,99.3659 c -11.7978,-23.4236 -10.6057,-65.1429 -9.6194,-81.3044 18.6584,-1.2796 32.0775,-4.8145 32.0775,-8.979 0,-4.0877 -12.9163,-7.5717 -31.0339,-8.9066 11.5704,-5.9618 19.4879,-18.0192 19.4879,-31.9328 0,-19.832 -16.0715,-35.9095 -35.9063,-35.9095 -19.8348,0 -35.9063,16.0778 -35.9063,35.9095 0,13.9133 7.9142,25.9707 19.4878,31.9328 -18.1146,1.3349 -31.0368,4.8189 -31.0368,8.9066 0,4.1645 13.4263,7.6994 32.0807,8.979 0.9893,16.1621 2.1813,57.8818 -9.6164,81.3044 -23.1226,4.6483 -39.3481,15.5583 -39.3481,28.2701 h 128.675 c 0,-12.7102 -16.2024,-23.6271 -39.326,-28.2834 z"
     id="path212" /></g>
	
	
	
	
	
	
	
	
	
	
	
	
	
	
	
	
	
	
	
	
	
	
	
	
	
	
	
	
	
	
</g>
</svg>
